<?xml version="1.0" encoding="UTF-8"?>
<!DOCTYPE svg PUBLIC "-//W3C//DTD SVG 1.1//EN" "http://www.w3.org/Graphics/SVG/1.1/DTD/svg11.dtd">
<svg xmlns="http://www.w3.org/2000/svg" version="1.1" width="128px" height="128px" style="shape-rendering:geometricPrecision; text-rendering:geometricPrecision; image-rendering:optimizeQuality; fill-rule:evenodd; clip-rule:evenodd" xmlns:xlink="http://www.w3.org/1999/xlink">
<g><path style="opacity:0.556" fill="#020507" d="M 53.5,4.5 C 68.062,2.34434 81.7287,5.01101 94.5,12.5C 94.5,12.8333 94.5,13.1667 94.5,13.5C 89.128,10.6465 83.4613,8.64646 77.5,7.5C 73.1004,5.89581 68.4338,5.22914 63.5,5.5C 61.8333,5.5 60.1667,5.5 58.5,5.5C 57.0813,4.54885 55.4147,4.21552 53.5,4.5 Z"/></g>
<g><path style="opacity:0.647" fill="#1c0d05" d="M 53.5,4.5 C 55.4147,4.21552 57.0813,4.54885 58.5,5.5C 53.3604,5.86125 48.3604,6.86125 43.5,8.5C 42.8333,8.5 42.5,8.83333 42.5,9.5C 37.0235,11.4031 32.0235,14.0698 27.5,17.5C 27.1667,17.5 26.8333,17.5 26.5,17.5C 33.744,9.71255 42.744,5.37922 53.5,4.5 Z"/></g>
<g><path style="opacity:1" fill="#326686" d="M 77.5,7.5 C 77.5,8.16667 77.8333,8.5 78.5,8.5C 77.8303,11.6729 76.6636,14.6729 75,17.5C 74.3292,18.2524 73.4959,18.5858 72.5,18.5C 70.975,15.7529 69.975,12.7529 69.5,9.5C 71.8511,7.77111 74.5178,7.10445 77.5,7.5 Z"/></g>
<g><path style="opacity:1" fill="#4c7f8a" d="M 63.5,5.5 C 68.4338,5.22914 73.1004,5.89581 77.5,7.5C 74.5178,7.10445 71.8511,7.77111 69.5,9.5C 69.975,12.7529 70.975,15.7529 72.5,18.5C 71.8333,18.5 71.1667,18.5 70.5,18.5C 69.1667,18.5 67.8333,18.5 66.5,18.5C 62.7259,18.3877 59.3926,17.2211 56.5,15C 57.8333,14 57.8333,13 56.5,12C 58.7824,9.54231 61.1157,7.37565 63.5,5.5 Z"/></g>
<g><path style="opacity:1" fill="#7f8865" d="M 58.5,5.5 C 60.1667,5.5 61.8333,5.5 63.5,5.5C 61.1157,7.37565 58.7824,9.54231 56.5,12C 57.8333,13 57.8333,14 56.5,15C 59.3926,17.2211 62.7259,18.3877 66.5,18.5C 68.1827,19.8534 69.5161,21.5201 70.5,23.5C 68.8516,25.4559 68.1849,27.7892 68.5,30.5C 67.2223,30.2178 66.2223,29.5511 65.5,28.5C 65.8898,24.8612 64.8898,21.6946 62.5,19C 57.8333,18.6667 53.1667,18.3333 48.5,18C 48.8333,17.6667 49.1667,17.3333 49.5,17C 47.1215,14.4005 45.1215,11.5672 43.5,8.5C 48.3604,6.86125 53.3604,5.86125 58.5,5.5 Z"/></g>
<g><path style="opacity:0.65" fill="#02070f" d="M 94.5,12.5 C 109.667,21.4766 118.334,34.81 120.5,52.5C 120.825,59.6866 120.491,66.6866 119.5,73.5C 119.5,67.8333 119.5,62.1667 119.5,56.5C 119.001,48.4813 116.668,41.1479 112.5,34.5C 107.962,26.2916 101.962,19.2916 94.5,13.5C 94.5,13.1667 94.5,12.8333 94.5,12.5 Z"/></g>
<g><path style="opacity:1" fill="#1d3950" d="M 78.5,8.5 C 80.403,8.79586 82.0697,9.46253 83.5,10.5C 82.5785,13.1264 81.5785,15.7931 80.5,18.5C 78.2573,19.4742 75.924,19.8076 73.5,19.5C 72.209,19.7373 71.209,19.404 70.5,18.5C 71.1667,18.5 71.8333,18.5 72.5,18.5C 73.4959,18.5858 74.3292,18.2524 75,17.5C 76.6636,14.6729 77.8303,11.6729 78.5,8.5 Z"/></g>
<g><path style="opacity:1" fill="#2b5077" d="M 83.5,10.5 C 89.6367,12.6541 94.97,15.9874 99.5,20.5C 94.8923,18.8528 90.5589,19.1862 86.5,21.5C 84.9582,20.6993 83.2915,20.366 81.5,20.5C 78.6146,20.8064 75.9479,20.4731 73.5,19.5C 75.924,19.8076 78.2573,19.4742 80.5,18.5C 81.5785,15.7931 82.5785,13.1264 83.5,10.5 Z"/></g>
<g><path style="opacity:1" fill="#e99924" d="M 42.5,9.5 C 42.5,9.83333 42.5,10.1667 42.5,10.5C 41.8333,10.8333 41.1667,11.1667 40.5,11.5C 36.2493,13.4251 32.5827,16.0918 29.5,19.5C 28.7611,19.369 28.0944,19.5357 27.5,20C 24.7065,23.1051 22.0398,26.2717 19.5,29.5C 16.1527,34.8612 13.3194,40.5279 11,46.5C 10.5357,45.9056 10.369,45.2389 10.5,44.5C 13.8928,34.0432 19.5595,25.0432 27.5,17.5C 32.0235,14.0698 37.0235,11.4031 42.5,9.5 Z"/></g>
<g><path style="opacity:1" fill="#155185" d="M 99.5,20.5 C 101.914,21.9108 103.581,23.9108 104.5,26.5C 102.801,26.6602 101.134,26.4935 99.5,26C 97.4839,19.8645 96.1506,20.0311 95.5,26.5C 92.7201,24.3073 89.7201,22.6406 86.5,21.5C 90.5589,19.1862 94.8923,18.8528 99.5,20.5 Z"/></g>
<g><path style="opacity:1" fill="#ef8508" d="M 40.5,11.5 C 42.5789,16.808 45.5789,21.6413 49.5,26C 51.8947,26.6813 54.228,27.5147 56.5,28.5C 57.1272,29.4168 57.4606,30.4168 57.5,31.5C 57.5,32.1667 57.1667,32.5 56.5,32.5C 54.9023,28.8619 52.2356,27.8619 48.5,29.5C 44.862,27.5555 42.6954,24.5555 42,20.5C 41.7679,21.7375 41.2679,22.7375 40.5,23.5C 39.5041,23.5858 38.6708,23.2524 38,22.5C 35.7321,24.1875 33.5655,26.0209 31.5,28C 30.451,28.4922 29.451,28.3256 28.5,27.5C 27.8076,28.0253 27.3076,28.6919 27,29.5C 26.2496,28.8742 25.4162,28.3742 24.5,28C 25.4506,27.2825 25.6172,26.4491 25,25.5C 22.706,27.6475 22.206,29.9809 23.5,32.5C 22.6076,37.4376 22.2743,42.4376 22.5,47.5C 22.1667,47.5 21.8333,47.5 21.5,47.5C 21.1667,46.5 20.5,45.8333 19.5,45.5C 18.2582,39.8757 18.2582,34.5424 19.5,29.5C 22.0398,26.2717 24.7065,23.1051 27.5,20C 28.0944,19.5357 28.7611,19.369 29.5,19.5C 32.5827,16.0918 36.2493,13.4251 40.5,11.5 Z"/></g>
<g><path style="opacity:1" fill="#f8cc3e" d="M 29.5,19.5 C 31.8614,18.5652 34.0281,17.2318 36,15.5C 34.7635,18.776 32.5968,21.6094 29.5,24C 28.5,24.6667 27.5,24.6667 26.5,24C 27.8825,22.7292 28.8825,21.2292 29.5,19.5 Z"/></g>
<g><path style="opacity:1" fill="#f69407" d="M 40.5,23.5 C 40.3573,25.2624 40.6906,26.9291 41.5,28.5C 36.5681,29.9253 32.2348,32.4253 28.5,36C 27.2068,36.49 25.8734,36.6567 24.5,36.5C 24.8545,34.2326 24.5211,32.8993 23.5,32.5C 22.206,29.9809 22.706,27.6475 25,25.5C 25.6172,26.4491 25.4506,27.2825 24.5,28C 25.4162,28.3742 26.2496,28.8742 27,29.5C 27.3076,28.6919 27.8076,28.0253 28.5,27.5C 29.451,28.3256 30.451,28.4922 31.5,28C 33.5655,26.0209 35.7321,24.1875 38,22.5C 38.6708,23.2524 39.5041,23.5858 40.5,23.5 Z"/></g>
<g><path style="opacity:1" fill="#ef9907" d="M 56.5,32.5 C 56.6576,35.9023 56.3242,39.2356 55.5,42.5C 53.1928,39.3619 50.3594,36.6952 47,34.5C 46.5357,35.0944 46.369,35.7611 46.5,36.5C 44.8568,34.0269 42.6902,32.0269 40,30.5C 37.0091,31.6593 34.8425,33.6593 33.5,36.5C 33.2041,38.403 32.5375,40.0697 31.5,41.5C 31.741,38.001 30.9076,37.6677 29,40.5C 28.3878,37.9683 26.8878,37.1349 24.5,38C 24.3563,42.145 25.023,46.3117 26.5,50.5C 25.1667,49.5 23.8333,48.5 22.5,47.5C 22.2743,42.4376 22.6076,37.4376 23.5,32.5C 24.5211,32.8993 24.8545,34.2326 24.5,36.5C 25.8734,36.6567 27.2068,36.49 28.5,36C 32.2348,32.4253 36.5681,29.9253 41.5,28.5C 40.6906,26.9291 40.3573,25.2624 40.5,23.5C 41.2679,22.7375 41.7679,21.7375 42,20.5C 42.6954,24.5555 44.862,27.5555 48.5,29.5C 52.2356,27.8619 54.9023,28.8619 56.5,32.5 Z"/></g>
<g><path style="opacity:1" fill="#cb7616" d="M 42.5,10.5 C 44.281,16.4457 48.281,19.6123 54.5,20C 56.66,21.332 58.66,22.832 60.5,24.5C 60.7267,27.438 59.7267,29.7713 57.5,31.5C 57.4606,30.4168 57.1272,29.4168 56.5,28.5C 54.228,27.5147 51.8947,26.6813 49.5,26C 45.5789,21.6413 42.5789,16.808 40.5,11.5C 41.1667,11.1667 41.8333,10.8333 42.5,10.5 Z"/></g>
<g><path style="opacity:1" fill="#3076af" d="M 77.5,7.5 C 83.4613,8.64646 89.128,10.6465 94.5,13.5C 101.962,19.2916 107.962,26.2916 112.5,34.5C 112.631,35.2389 112.464,35.9056 112,36.5C 110.021,32.6997 107.521,29.3664 104.5,26.5C 103.581,23.9108 101.914,21.9108 99.5,20.5C 94.97,15.9874 89.6367,12.6541 83.5,10.5C 82.0697,9.46253 80.403,8.79586 78.5,8.5C 77.8333,8.5 77.5,8.16667 77.5,7.5 Z"/></g>
<g><path style="opacity:1" fill="#0886b9" d="M 98.5,49.5 C 97.791,50.404 96.791,50.7373 95.5,50.5C 95.5,49.8333 95.5,49.1667 95.5,48.5C 96.3764,48.6309 97.0431,48.2975 97.5,47.5C 96.8783,41.9222 95.3783,36.5888 93,31.5C 89.5726,28.0368 85.4059,26.0368 80.5,25.5C 80.5,25.1667 80.5,24.8333 80.5,24.5C 82.1368,23.7822 83.8034,23.6155 85.5,24C 88.7713,26.0934 91.938,28.26 95,30.5C 95.2494,33.1768 96.2494,35.5101 98,37.5C 98.4988,41.4862 98.6655,45.4862 98.5,49.5 Z"/></g>
<g><path style="opacity:1" fill="#02549a" d="M 104.5,26.5 C 106.382,31.7559 108.382,36.9226 110.5,42C 108.242,44.4659 105.909,46.6326 103.5,48.5C 105.002,44.1803 104.336,40.1803 101.5,36.5C 102.025,35.8076 102.692,35.3076 103.5,35C 99.2693,34.9571 97.436,32.7905 98,28.5C 97.2917,27.6195 96.4584,26.9528 95.5,26.5C 96.1506,20.0311 97.4839,19.8645 99.5,26C 101.134,26.4935 102.801,26.6602 104.5,26.5 Z"/></g>
<g><path style="opacity:1" fill="#54777e" d="M 66.5,18.5 C 67.8333,18.5 69.1667,18.5 70.5,18.5C 71.209,19.404 72.209,19.7373 73.5,19.5C 75.9479,20.4731 78.6146,20.8064 81.5,20.5C 80.7659,21.7079 80.4326,23.0413 80.5,24.5C 80.5,24.8333 80.5,25.1667 80.5,25.5C 78.0274,25.0882 76.6941,26.0882 76.5,28.5C 75.2101,29.0577 74.3768,30.0577 74,31.5C 73.7679,30.2625 73.2679,29.2625 72.5,28.5C 71.2947,27.3281 71.2947,25.9948 72.5,24.5C 72.0431,23.7025 71.3764,23.3691 70.5,23.5C 69.5161,21.5201 68.1827,19.8534 66.5,18.5 Z"/></g>
<g><path style="opacity:1" fill="#47e3da" d="M 46.5,36.5 C 46.6287,38.2161 46.962,39.8828 47.5,41.5C 46.0869,40.0089 44.5869,39.3423 43,39.5C 42.79,41.0581 42.29,42.3915 41.5,43.5C 42.0102,40.6122 41.3435,38.2789 39.5,36.5C 39.2172,35.7109 38.7172,35.0442 38,34.5C 36.8904,36.0368 35.3904,36.7035 33.5,36.5C 34.8425,33.6593 37.0091,31.6593 40,30.5C 42.6902,32.0269 44.8568,34.0269 46.5,36.5 Z"/></g>
<g><path style="opacity:1" fill="#9f7a36" d="M 43.5,8.5 C 45.1215,11.5672 47.1215,14.4005 49.5,17C 49.1667,17.3333 48.8333,17.6667 48.5,18C 53.1667,18.3333 57.8333,18.6667 62.5,19C 64.8898,21.6946 65.8898,24.8612 65.5,28.5C 64.977,36.602 63.977,44.602 62.5,52.5C 61.8333,52.5 61.1667,52.5 60.5,52.5C 62.8787,42.9021 62.8787,33.5687 60.5,24.5C 58.66,22.832 56.66,21.332 54.5,20C 48.281,19.6123 44.281,16.4457 42.5,10.5C 42.5,10.1667 42.5,9.83333 42.5,9.5C 42.5,8.83333 42.8333,8.5 43.5,8.5 Z"/></g>
<g><path style="opacity:1" fill="#14e4e3" d="M 91.5,35.5 C 91.6567,36.8734 91.49,38.2068 91,39.5C 90.7216,38.5842 90.2216,37.9175 89.5,37.5C 88.8333,37.8333 88.1667,38.1667 87.5,38.5C 86.5,34.5 85.5,34.5 84.5,38.5C 83.603,37.4019 82.7697,37.4019 82,38.5C 81.967,42.0719 80.8003,45.0719 78.5,47.5C 78.5,46.5 78.5,45.5 78.5,44.5C 79.3234,41.5394 79.99,38.5394 80.5,35.5C 82.5588,31.4577 85.5588,30.291 89.5,32C 90.8228,32.8159 91.4894,33.9826 91.5,35.5 Z"/></g>
<g><path style="opacity:1" fill="#e47516" d="M 19.5,29.5 C 18.2582,34.5424 18.2582,39.8757 19.5,45.5C 18.5416,45.0472 17.7083,44.3805 17,43.5C 14.2787,45.7208 12.112,48.3875 10.5,51.5C 9.83333,51.8333 9.16667,52.1667 8.5,52.5C 8.56513,49.5718 9.2318,46.9052 10.5,44.5C 10.369,45.2389 10.5357,45.9056 11,46.5C 13.3194,40.5279 16.1527,34.8612 19.5,29.5 Z"/></g>
<g><path style="opacity:1" fill="#03e6e4" d="M 91.5,35.5 C 93.7806,39.439 95.114,43.7723 95.5,48.5C 95.5,49.1667 95.5,49.8333 95.5,50.5C 95.5,51.5 95.5,52.5 95.5,53.5C 94.8826,53.3893 94.3826,53.056 94,52.5C 90.6132,56.0391 86.4466,57.3724 81.5,56.5C 81.7271,54.0672 80.7271,52.4006 78.5,51.5C 78.5,50.8333 78.5,50.1667 78.5,49.5C 80.8356,51.0038 82.669,53.0038 84,55.5C 85.3333,54.1667 86.6667,54.1667 88,55.5C 88.8333,54 90,52.8333 91.5,52C 87.81,51.5756 87.6433,50.7423 91,49.5C 91.6172,48.5509 91.4506,47.7175 90.5,47C 92.5541,45.3179 92.2207,43.6512 89.5,42C 89.9662,40.7012 89.9662,39.2012 89.5,37.5C 90.2216,37.9175 90.7216,38.5842 91,39.5C 91.49,38.2068 91.6567,36.8734 91.5,35.5 Z"/></g>
<g><path style="opacity:1" fill="#daf0d5" d="M 39.5,36.5 C 41.3435,38.2789 42.0102,40.6122 41.5,43.5C 41.5,44.5 41.5,45.5 41.5,46.5C 39.8762,46.6399 38.7096,45.9733 38,44.5C 37.2971,41.5178 37.7971,38.8512 39.5,36.5 Z"/></g>
<g><path style="opacity:1" fill="#ca9020" d="M 60.5,24.5 C 62.8787,33.5687 62.8787,42.9021 60.5,52.5C 59.5084,52.3284 58.8417,52.6618 58.5,53.5C 55.1667,53.5 51.8333,53.5 48.5,53.5C 48.5,51.1667 48.5,48.8333 48.5,46.5C 49.4511,47.9187 49.7845,49.5853 49.5,51.5C 52.961,52.1105 55.6277,50.9439 57.5,48C 55.8446,46.5557 55.178,44.7224 55.5,42.5C 56.3242,39.2356 56.6576,35.9023 56.5,32.5C 57.1667,32.5 57.5,32.1667 57.5,31.5C 59.7267,29.7713 60.7267,27.438 60.5,24.5 Z"/></g>
<g><path style="opacity:1" fill="#054683" d="M 104.5,26.5 C 107.521,29.3664 110.021,32.6997 112,36.5C 112.464,35.9056 112.631,35.2389 112.5,34.5C 116.668,41.1479 119.001,48.4813 119.5,56.5C 117.852,54.5707 116.185,52.5707 114.5,50.5C 113.386,49.2241 112.386,49.2241 111.5,50.5C 110.778,50.0825 110.278,49.4158 110,48.5C 109.667,49.8333 109.333,51.1667 109,52.5C 104.55,47.819 103.05,48.4856 104.5,54.5C 103.807,55.9597 103.474,57.6264 103.5,59.5C 102.833,59.5 102.167,59.5 101.5,59.5C 99.5417,57.9 98.2084,55.7334 97.5,53C 98.4295,51.9231 99.0962,50.7564 99.5,49.5C 100.833,49.1667 102.167,48.8333 103.5,48.5C 105.909,46.6326 108.242,44.4659 110.5,42C 108.382,36.9226 106.382,31.7559 104.5,26.5 Z"/></g>
<g><path style="opacity:1" fill="#ccf3de" d="M 87.5,38.5 C 88.877,41.6358 88.5437,44.6358 86.5,47.5C 85.914,47.2907 85.414,46.9574 85,46.5C 84.5026,43.854 84.3359,41.1873 84.5,38.5C 85.5,34.5 86.5,34.5 87.5,38.5 Z"/></g>
<g><path style="opacity:1" fill="#0674b2" d="M 81.5,20.5 C 83.2915,20.366 84.9582,20.6993 86.5,21.5C 89.7201,22.6406 92.7201,24.3073 95.5,26.5C 96.4584,26.9528 97.2917,27.6195 98,28.5C 97.436,32.7905 99.2693,34.9571 103.5,35C 102.692,35.3076 102.025,35.8076 101.5,36.5C 104.336,40.1803 105.002,44.1803 103.5,48.5C 102.167,48.8333 100.833,49.1667 99.5,49.5C 99.1667,49.5 98.8333,49.5 98.5,49.5C 98.6655,45.4862 98.4988,41.4862 98,37.5C 96.2494,35.5101 95.2494,33.1768 95,30.5C 91.938,28.26 88.7713,26.0934 85.5,24C 83.8034,23.6155 82.1368,23.7822 80.5,24.5C 80.4326,23.0413 80.7659,21.7079 81.5,20.5 Z"/></g>
<g><path style="opacity:1" fill="#3ee7df" d="M 39.5,36.5 C 37.7971,38.8512 37.2971,41.5178 38,44.5C 38.7096,45.9733 39.8762,46.6399 41.5,46.5C 41.5,45.5 41.5,44.5 41.5,43.5C 42.29,42.3915 42.79,41.0581 43,39.5C 44.5869,39.3423 46.0869,40.0089 47.5,41.5C 47.5,43.5 47.5,45.5 47.5,47.5C 46.448,47.3505 45.448,47.5172 44.5,48C 45.2524,48.6708 45.5858,49.5041 45.5,50.5C 44.0337,49.653 43.2004,48.3197 43,46.5C 41.6626,47.7649 40.1626,48.2649 38.5,48C 37.3601,46.0266 36.0267,44.1933 34.5,42.5C 33.827,45.2647 32.4937,47.9314 30.5,50.5C 30.9629,47.5176 31.2962,44.5176 31.5,41.5C 32.5375,40.0697 33.2041,38.403 33.5,36.5C 35.3904,36.7035 36.8904,36.0368 38,34.5C 38.7172,35.0442 39.2172,35.7109 39.5,36.5 Z"/></g>
<g><path style="opacity:1" fill="#1095b8" d="M 80.5,25.5 C 85.4059,26.0368 89.5726,28.0368 93,31.5C 95.3783,36.5888 96.8783,41.9222 97.5,47.5C 97.0431,48.2975 96.3764,48.6309 95.5,48.5C 95.114,43.7723 93.7806,39.439 91.5,35.5C 91.4894,33.9826 90.8228,32.8159 89.5,32C 85.5588,30.291 82.5588,31.4577 80.5,35.5C 79.1667,33.1667 77.8333,30.8333 76.5,28.5C 76.6941,26.0882 78.0274,25.0882 80.5,25.5 Z"/></g>
<g><path style="opacity:0.615" fill="#0e0807" d="M 26.5,17.5 C 26.8333,17.5 27.1667,17.5 27.5,17.5C 19.5595,25.0432 13.8928,34.0432 10.5,44.5C 9.2318,46.9052 8.56513,49.5718 8.5,52.5C 7.76589,53.7079 7.43255,55.0413 7.5,56.5C 7.5,58.5 7.5,60.5 7.5,62.5C 7.18876,67.7664 7.85543,72.7664 9.5,77.5C 10.5642,82.6925 12.2308,87.6925 14.5,92.5C 14.5,93.1667 14.5,93.8333 14.5,94.5C 10.6935,89.8821 8.19351,84.5488 7,78.5C 2.37147,56.0628 7.7048,36.3961 23,19.5C 24.1127,18.695 25.2794,18.0283 26.5,17.5 Z"/></g>
<g><path style="opacity:1" fill="#6b947b" d="M 70.5,23.5 C 71.3764,23.3691 72.0431,23.7025 72.5,24.5C 71.2947,25.9948 71.2947,27.3281 72.5,28.5C 72.7324,36.8694 71.3991,44.8694 68.5,52.5C 67.8333,52.5 67.1667,52.5 66.5,52.5C 69.4582,45.4759 70.1249,38.1426 68.5,30.5C 68.1849,27.7892 68.8516,25.4559 70.5,23.5 Z"/></g>
<g><path style="opacity:1" fill="#f4a806" d="M 31.5,41.5 C 31.2962,44.5176 30.9629,47.5176 30.5,50.5C 30.5,50.8333 30.5,51.1667 30.5,51.5C 29.0413,51.5674 27.7079,51.2341 26.5,50.5C 25.023,46.3117 24.3563,42.145 24.5,38C 26.8878,37.1349 28.3878,37.9683 29,40.5C 30.9076,37.6677 31.741,38.001 31.5,41.5 Z"/></g>
<g><path style="opacity:1" fill="#eeb407" d="M 55.5,42.5 C 55.178,44.7224 55.8446,46.5557 57.5,48C 55.6277,50.9439 52.961,52.1105 49.5,51.5C 49.7845,49.5853 49.4511,47.9187 48.5,46.5C 48.7845,44.5853 48.4511,42.9187 47.5,41.5C 46.962,39.8828 46.6287,38.2161 46.5,36.5C 46.369,35.7611 46.5357,35.0944 47,34.5C 50.3594,36.6952 53.1928,39.3619 55.5,42.5 Z"/></g>
<g><path style="opacity:1" fill="#41a1a5" d="M 72.5,28.5 C 73.2679,29.2625 73.7679,30.2625 74,31.5C 74.3768,30.0577 75.2101,29.0577 76.5,28.5C 77.8333,30.8333 79.1667,33.1667 80.5,35.5C 79.99,38.5394 79.3234,41.5394 78.5,44.5C 77.5269,46.9479 77.1936,49.6146 77.5,52.5C 74.5,52.5 71.5,52.5 68.5,52.5C 71.3991,44.8694 72.7324,36.8694 72.5,28.5 Z"/></g>
<g><path style="opacity:1" fill="#879561" d="M 65.5,28.5 C 66.2223,29.5511 67.2223,30.2178 68.5,30.5C 70.1249,38.1426 69.4582,45.4759 66.5,52.5C 65.1667,52.5 63.8333,52.5 62.5,52.5C 63.977,44.602 64.977,36.602 65.5,28.5 Z"/></g>
<g><path style="opacity:1" fill="#2de9e1" d="M 45.5,50.5 C 45.4142,51.4959 45.7476,52.3292 46.5,53C 44.7033,55.2317 42.37,56.3983 39.5,56.5C 36.0836,55.9556 33.0836,54.6223 30.5,52.5C 30.5,52.1667 30.5,51.8333 30.5,51.5C 30.5,51.1667 30.5,50.8333 30.5,50.5C 32.4937,47.9314 33.827,45.2647 34.5,42.5C 36.0267,44.1933 37.3601,46.0266 38.5,48C 40.1626,48.2649 41.6626,47.7649 43,46.5C 43.2004,48.3197 44.0337,49.653 45.5,50.5 Z"/></g>
<g><path style="opacity:1" fill="#14e9e4" d="M 84.5,38.5 C 84.3359,41.1873 84.5026,43.854 85,46.5C 85.414,46.9574 85.914,47.2907 86.5,47.5C 88.5437,44.6358 88.877,41.6358 87.5,38.5C 88.1667,38.1667 88.8333,37.8333 89.5,37.5C 89.9662,39.2012 89.9662,40.7012 89.5,42C 92.2207,43.6512 92.5541,45.3179 90.5,47C 91.4506,47.7175 91.6172,48.5509 91,49.5C 87.6433,50.7423 87.81,51.5756 91.5,52C 90,52.8333 88.8333,54 88,55.5C 86.6667,54.1667 85.3333,54.1667 84,55.5C 82.669,53.0038 80.8356,51.0038 78.5,49.5C 78.5,48.8333 78.5,48.1667 78.5,47.5C 80.8003,45.0719 81.967,42.0719 82,38.5C 82.7697,37.4019 83.603,37.4019 84.5,38.5 Z"/></g>
<g><path style="opacity:1" fill="#0e1817" d="M 78.5,44.5 C 78.5,45.5 78.5,46.5 78.5,47.5C 78.5,48.1667 78.5,48.8333 78.5,49.5C 78.5,50.1667 78.5,50.8333 78.5,51.5C 78.5,53.8333 78.5,56.1667 78.5,58.5C 77.5489,57.0813 77.2155,55.4147 77.5,53.5C 73.5,53.5 69.5,53.5 65.5,53.5C 64.1667,53.5 62.8333,53.5 61.5,53.5C 60.8333,53.5 60.1667,53.5 59.5,53.5C 59.1667,53.5 58.8333,53.5 58.5,53.5C 58.8417,52.6618 59.5084,52.3284 60.5,52.5C 61.1667,52.5 61.8333,52.5 62.5,52.5C 63.8333,52.5 65.1667,52.5 66.5,52.5C 67.1667,52.5 67.8333,52.5 68.5,52.5C 71.5,52.5 74.5,52.5 77.5,52.5C 77.1936,49.6146 77.5269,46.9479 78.5,44.5 Z"/></g>
<g><path style="opacity:1" fill="#00408c" d="M 119.5,56.5 C 119.5,62.1667 119.5,67.8333 119.5,73.5C 118.249,79.9889 115.916,85.9889 112.5,91.5C 111.957,91.44 111.624,91.1067 111.5,90.5C 112.333,88.8333 113.167,87.1667 114,85.5C 115.376,77.3535 115.543,69.3535 114.5,61.5C 113.791,60.596 112.791,60.2627 111.5,60.5C 111.5,57.1667 111.5,53.8333 111.5,50.5C 112.386,49.2241 113.386,49.2241 114.5,50.5C 116.185,52.5707 117.852,54.5707 119.5,56.5 Z"/></g>
<g><path style="opacity:1" fill="#29d2cd" d="M 47.5,41.5 C 48.4511,42.9187 48.7845,44.5853 48.5,46.5C 48.5,48.8333 48.5,51.1667 48.5,53.5C 48.5,54.1667 48.5,54.8333 48.5,55.5C 45.1607,57.528 41.8274,58.8613 38.5,59.5C 34.9383,58.5942 32.2716,56.5942 30.5,53.5C 30.5,53.1667 30.5,52.8333 30.5,52.5C 33.0836,54.6223 36.0836,55.9556 39.5,56.5C 42.37,56.3983 44.7033,55.2317 46.5,53C 45.7476,52.3292 45.4142,51.4959 45.5,50.5C 45.5858,49.5041 45.2524,48.6708 44.5,48C 45.448,47.5172 46.448,47.3505 47.5,47.5C 47.5,45.5 47.5,43.5 47.5,41.5 Z"/></g>
<g><path style="opacity:1" fill="#e16f0a" d="M 21.5,47.5 C 21.8333,47.5 22.1667,47.5 22.5,47.5C 23.8333,48.5 25.1667,49.5 26.5,50.5C 27.7079,51.2341 29.0413,51.5674 30.5,51.5C 30.5,51.8333 30.5,52.1667 30.5,52.5C 30.5,52.8333 30.5,53.1667 30.5,53.5C 30.5,54.5 30.5,55.5 30.5,56.5C 28.5,55.5 26.5,54.5 24.5,53.5C 19.1087,49.4039 17.2754,51.0706 19,58.5C 22.0678,62.4397 22.2344,66.4397 19.5,70.5C 18.1413,65.1973 17.1413,59.6973 16.5,54C 16.6213,51.2142 17.4547,48.7142 19,46.5C 19.8382,47.999 20.6715,48.3324 21.5,47.5 Z"/></g>
<g><path style="opacity:1" fill="#00ccd5" d="M 78.5,51.5 C 80.7271,52.4006 81.7271,54.0672 81.5,56.5C 86.4466,57.3724 90.6132,56.0391 94,52.5C 94.3826,53.056 94.8826,53.3893 95.5,53.5C 95.4431,54.609 95.1098,55.609 94.5,56.5C 92.8622,58.3008 91.0289,59.9675 89,61.5C 87.3123,59.9551 85.3123,58.9551 83,58.5C 80.9,61.1649 81.4,63.3315 84.5,65C 87.2205,65.6015 89.8872,65.4349 92.5,64.5C 91.5501,67.1149 89.8835,69.1149 87.5,70.5C 85.7162,70.1075 84.0495,69.4408 82.5,68.5C 80.8506,65.5436 79.5173,62.5436 78.5,59.5C 78.5,59.1667 78.5,58.8333 78.5,58.5C 78.5,56.1667 78.5,53.8333 78.5,51.5 Z"/></g>
<g><path style="opacity:1" fill="#004a97" d="M 111.5,50.5 C 111.5,53.8333 111.5,57.1667 111.5,60.5C 112.791,60.2627 113.791,60.596 114.5,61.5C 114.662,63.5273 114.495,65.5273 114,67.5C 112.644,66.6198 111.144,66.2865 109.5,66.5C 109.799,64.396 109.466,62.396 108.5,60.5C 106.983,58.6035 105.65,56.6035 104.5,54.5C 103.05,48.4856 104.55,47.819 109,52.5C 109.333,51.1667 109.667,49.8333 110,48.5C 110.278,49.4158 110.778,50.0825 111.5,50.5 Z"/></g>
<g><path style="opacity:1" fill="#00c3d0" d="M 94.5,56.5 C 94.7062,59.4951 94.0395,62.1617 92.5,64.5C 89.8872,65.4349 87.2205,65.6015 84.5,65C 81.4,63.3315 80.9,61.1649 83,58.5C 85.3123,58.9551 87.3123,59.9551 89,61.5C 91.0289,59.9675 92.8622,58.3008 94.5,56.5 Z"/></g>
<g><path style="opacity:1" fill="#ef9407" d="M 24.5,53.5 C 26.5,54.5 28.5,55.5 30.5,56.5C 31.4716,60.5676 32.9716,64.5676 35,68.5C 36.5843,69.8613 38.4176,70.528 40.5,70.5C 40.5,70.8333 40.5,71.1667 40.5,71.5C 39.2921,72.2341 37.9587,72.5674 36.5,72.5C 35.325,72.719 34.325,72.3857 33.5,71.5C 31.8821,68.0571 29.7154,65.0571 27,62.5C 25.5699,59.6473 24.7366,56.6473 24.5,53.5 Z"/></g>
<g><path style="opacity:1" fill="#24cac7" d="M 30.5,53.5 C 32.2716,56.5942 34.9383,58.5942 38.5,59.5C 41.8274,58.8613 45.1607,57.528 48.5,55.5C 48.3757,59.4124 47.3757,63.0791 45.5,66.5C 44.4613,68.5311 42.7946,69.8645 40.5,70.5C 38.4176,70.528 36.5843,69.8613 35,68.5C 32.9716,64.5676 31.4716,60.5676 30.5,56.5C 30.5,55.5 30.5,54.5 30.5,53.5 Z"/></g>
<g><path style="opacity:1" fill="#e3b01a" d="M 48.5,53.5 C 51.8333,53.5 55.1667,53.5 58.5,53.5C 58.8333,53.5 59.1667,53.5 59.5,53.5C 59.5,53.8333 59.5,54.1667 59.5,54.5C 57.5896,61.9799 56.2562,69.6466 55.5,77.5C 54.6043,78.5063 53.9377,78.5063 53.5,77.5C 53.8333,76.1667 54.1667,74.8333 54.5,73.5C 54.8944,66.9971 54.2277,60.6638 52.5,54.5C 51.0413,54.4326 49.7079,54.7659 48.5,55.5C 48.5,54.8333 48.5,54.1667 48.5,53.5 Z"/></g>
<g><path style="opacity:1" fill="#ac5826" d="M 10.5,51.5 C 12.6254,55.8282 13.792,60.8282 14,66.5C 16.4212,69.5958 18.2545,72.9291 19.5,76.5C 19.5,77.1667 19.5,77.8333 19.5,78.5C 18.2719,77.6935 17.2719,76.6935 16.5,75.5C 15.1255,72.9301 13.4589,70.4301 11.5,68C 10.2039,63.9286 9.37061,59.762 9,55.5C 8.61742,56.056 8.11742,56.3893 7.5,56.5C 7.43255,55.0413 7.76589,53.7079 8.5,52.5C 9.16667,52.1667 9.83333,51.8333 10.5,51.5 Z"/></g>
<g><path style="opacity:1" fill="#c35c16" d="M 19.5,45.5 C 20.5,45.8333 21.1667,46.5 21.5,47.5C 20.6715,48.3324 19.8382,47.999 19,46.5C 17.4547,48.7142 16.6213,51.2142 16.5,54C 17.1413,59.6973 18.1413,65.1973 19.5,70.5C 19.5,72.5 19.5,74.5 19.5,76.5C 18.2545,72.9291 16.4212,69.5958 14,66.5C 13.792,60.8282 12.6254,55.8282 10.5,51.5C 12.112,48.3875 14.2787,45.7208 17,43.5C 17.7083,44.3805 18.5416,45.0472 19.5,45.5 Z"/></g>
<g><path style="opacity:1" fill="#eab10b" d="M 54.5,73.5 C 53.2082,71.7451 52.2082,69.7451 51.5,67.5C 48.952,69.1852 46.952,68.8519 45.5,66.5C 47.3757,63.0791 48.3757,59.4124 48.5,55.5C 49.7079,54.7659 51.0413,54.4326 52.5,54.5C 54.2277,60.6638 54.8944,66.9971 54.5,73.5 Z"/></g>
<g><path style="opacity:1" fill="#2cb0bc" d="M 65.5,54.5 C 65.5,54.1667 65.5,53.8333 65.5,53.5C 69.5,53.5 73.5,53.5 77.5,53.5C 77.2155,55.4147 77.5489,57.0813 78.5,58.5C 78.5,58.8333 78.5,59.1667 78.5,59.5C 77.6773,62.977 77.1773,66.6437 77,70.5C 73.7197,73.8425 71.8864,77.8425 71.5,82.5C 71.1667,82.5 70.8333,82.5 70.5,82.5C 70.2624,80.5956 69.2624,79.2623 67.5,78.5C 68.5464,71.8697 68.7131,65.203 68,58.5C 67.3918,56.9336 66.5585,55.6002 65.5,54.5 Z"/></g>
<g><path style="opacity:1" fill="#d2b938" d="M 59.5,54.5 C 61.4985,63.1556 60.4985,71.489 56.5,79.5C 56.1667,79.5 55.8333,79.5 55.5,79.5C 55.5,78.8333 55.5,78.1667 55.5,77.5C 56.2562,69.6466 57.5896,61.9799 59.5,54.5 Z"/></g>
<g><path style="opacity:1" fill="#f58902" d="M 24.5,53.5 C 24.7366,56.6473 25.5699,59.6473 27,62.5C 29.7154,65.0571 31.8821,68.0571 33.5,71.5C 34.325,72.3857 35.325,72.719 36.5,72.5C 38.0808,74.1417 38.7475,76.1417 38.5,78.5C 37.8333,78.5 37.5,78.8333 37.5,79.5C 35.8211,79.1077 34.1545,78.6077 32.5,78C 32.8333,77.6667 33.1667,77.3333 33.5,77C 29.8294,73.8292 26.496,70.3292 23.5,66.5C 20.0024,70.2948 19.6691,74.2948 22.5,78.5C 21.5,77.8333 20.5,77.1667 19.5,76.5C 19.5,74.5 19.5,72.5 19.5,70.5C 22.2344,66.4397 22.0678,62.4397 19,58.5C 17.2754,51.0706 19.1087,49.4039 24.5,53.5 Z"/></g>
<g><path style="opacity:1" fill="#68bc9a" d="M 65.5,54.5 C 66.5585,55.6002 67.3918,56.9336 68,58.5C 68.7131,65.203 68.5464,71.8697 67.5,78.5C 66.6043,79.5063 65.9377,79.5063 65.5,78.5C 65.5,70.5 65.5,62.5 65.5,54.5 Z"/></g>
<g><path style="opacity:1" fill="#016ba5" d="M 98.5,49.5 C 98.8333,49.5 99.1667,49.5 99.5,49.5C 99.0962,50.7564 98.4295,51.9231 97.5,53C 98.2084,55.7334 99.5417,57.9 101.5,59.5C 100.549,61.6195 99.0494,63.2862 97,64.5C 96.51,65.7932 96.3433,67.1266 96.5,68.5C 95.5,68.5 94.5,68.5 93.5,68.5C 93.6602,70.1992 93.4935,71.8659 93,73.5C 92.6174,72.944 92.1174,72.6107 91.5,72.5C 90.8166,70.8235 89.4832,70.1568 87.5,70.5C 89.8835,69.1149 91.5501,67.1149 92.5,64.5C 94.0395,62.1617 94.7062,59.4951 94.5,56.5C 95.1098,55.609 95.4431,54.609 95.5,53.5C 95.5,52.5 95.5,51.5 95.5,50.5C 96.791,50.7373 97.791,50.404 98.5,49.5 Z"/></g>
<g><path style="opacity:1" fill="#0174b9" d="M 101.5,59.5 C 102.167,59.5 102.833,59.5 103.5,59.5C 105.256,60.5521 105.923,62.2188 105.5,64.5C 104.833,66.8333 104.167,69.1667 103.5,71.5C 101.167,71.5 98.8333,71.5 96.5,71.5C 96.5,73.5 96.5,75.5 96.5,77.5C 91.9662,78.1066 90.2995,76.4399 91.5,72.5C 92.1174,72.6107 92.6174,72.944 93,73.5C 93.4935,71.8659 93.6602,70.1992 93.5,68.5C 94.5,68.5 95.5,68.5 96.5,68.5C 96.3433,67.1266 96.51,65.7932 97,64.5C 99.0494,63.2862 100.549,61.6195 101.5,59.5 Z"/></g>
<g><path style="opacity:1" fill="#03a4c7" d="M 78.5,59.5 C 79.5173,62.5436 80.8506,65.5436 82.5,68.5C 82.1318,75.9606 78.4651,80.6273 71.5,82.5C 71.8864,77.8425 73.7197,73.8425 77,70.5C 77.1773,66.6437 77.6773,62.977 78.5,59.5 Z"/></g>
<g><path style="opacity:1" fill="#b1b956" d="M 59.5,54.5 C 59.5,54.1667 59.5,53.8333 59.5,53.5C 60.1667,53.5 60.8333,53.5 61.5,53.5C 63.852,60.2779 64.0187,67.2779 62,74.5C 59.3451,75.6258 57.8451,77.6258 57.5,80.5C 56.8333,80.5 56.5,80.1667 56.5,79.5C 60.4985,71.489 61.4985,63.1556 59.5,54.5 Z"/></g>
<g><path style="opacity:1" fill="#f49703" d="M 40.5,71.5 C 42.9599,71.6985 45.2933,72.3652 47.5,73.5C 46.3468,76.6622 47.3468,77.3289 50.5,75.5C 51.7133,75.7472 52.38,76.4138 52.5,77.5C 52.5,78.1667 52.1667,78.5 51.5,78.5C 49.1191,77.5804 46.7857,77.5804 44.5,78.5C 43.7836,77.689 42.9503,77.0223 42,76.5C 40.9231,77.4295 39.7564,78.0962 38.5,78.5C 38.7475,76.1417 38.0808,74.1417 36.5,72.5C 37.9587,72.5674 39.2921,72.2341 40.5,71.5 Z"/></g>
<g><path style="opacity:1" fill="#004497" d="M 114.5,61.5 C 115.543,69.3535 115.376,77.3535 114,85.5C 113.167,87.1667 112.333,88.8333 111.5,90.5C 111.624,91.1067 111.957,91.44 112.5,91.5C 112.5,92.1667 112.167,92.5 111.5,92.5C 107.779,92.9111 104.112,93.5778 100.5,94.5C 100.617,90.6426 102.45,87.9759 106,86.5C 107.154,82.896 107.987,79.2293 108.5,75.5C 115.395,74.4905 115.728,73.8238 109.5,73.5C 109.343,72.1266 109.51,70.7932 110,69.5C 111.131,70.6039 111.965,70.2705 112.5,68.5C 111.726,67.2888 110.893,67.2888 110,68.5C 109.536,67.9056 109.369,67.2389 109.5,66.5C 111.144,66.2865 112.644,66.6198 114,67.5C 114.495,65.5273 114.662,63.5273 114.5,61.5 Z"/></g>
<g><path style="opacity:1" fill="#f1a107" d="M 45.5,66.5 C 46.952,68.8519 48.952,69.1852 51.5,67.5C 52.2082,69.7451 53.2082,71.7451 54.5,73.5C 54.1667,74.8333 53.8333,76.1667 53.5,77.5C 53.1667,77.5 52.8333,77.5 52.5,77.5C 52.38,76.4138 51.7133,75.7472 50.5,75.5C 47.3468,77.3289 46.3468,76.6622 47.5,73.5C 45.2933,72.3652 42.9599,71.6985 40.5,71.5C 40.5,71.1667 40.5,70.8333 40.5,70.5C 42.7946,69.8645 44.4613,68.5311 45.5,66.5 Z"/></g>
<g><path style="opacity:1" fill="#935332" d="M 16.5,75.5 C 16.2471,77.8273 16.9137,79.8273 18.5,81.5C 18.1667,82.1667 17.8333,82.8333 17.5,83.5C 20.153,85.155 22.4864,87.155 24.5,89.5C 27.1024,90.1324 29.4357,91.1324 31.5,92.5C 30.1667,92.5 28.8333,92.5 27.5,92.5C 26.5,92.5 25.5,92.5 24.5,92.5C 22.0998,89.596 19.2665,87.2627 16,85.5C 14.7633,81.1262 12.7633,77.1262 10,73.5C 9.8923,69.5349 9.05897,65.8683 7.5,62.5C 7.5,60.5 7.5,58.5 7.5,56.5C 8.11742,56.3893 8.61742,56.056 9,55.5C 9.37061,59.762 10.2039,63.9286 11.5,68C 13.4589,70.4301 15.1255,72.9301 16.5,75.5 Z"/></g>
<g><path style="opacity:1" fill="#017fbb" d="M 87.5,70.5 C 89.4832,70.1568 90.8166,70.8235 91.5,72.5C 89.2547,72.5412 88.5881,73.3745 89.5,75C 87.5001,76.622 85.6667,78.4553 84,80.5C 81.733,84.8703 83.233,87.2037 88.5,87.5C 88.1583,88.3382 87.4916,88.6716 86.5,88.5C 83.7284,87.6285 81.0618,87.6285 78.5,88.5C 78.5,88.1667 78.5,87.8333 78.5,87.5C 78.4192,82.3127 80.9192,78.3127 86,75.5C 86.6077,73.8455 87.1077,72.1789 87.5,70.5 Z"/></g>
<g><path style="opacity:1" fill="#e87206" d="M 37.5,79.5 C 37.1658,82.188 37.8325,84.5214 39.5,86.5C 35.0561,84.8857 30.8895,85.2191 27,87.5C 26.1785,84.8832 25.6785,82.2165 25.5,79.5C 24.209,79.7373 23.209,79.404 22.5,78.5C 19.6691,74.2948 20.0024,70.2948 23.5,66.5C 26.496,70.3292 29.8294,73.8292 33.5,77C 33.1667,77.3333 32.8333,77.6667 32.5,78C 34.1545,78.6077 35.8211,79.1077 37.5,79.5 Z"/></g>
<g><path style="opacity:1" fill="#027dc0" d="M 103.5,71.5 C 101.735,72.4614 99.7354,72.7947 97.5,72.5C 97.5,74.5 97.5,76.5 97.5,78.5C 95.1667,78.5 92.8333,78.5 90.5,78.5C 90.9321,81.8774 90.2655,84.8774 88.5,87.5C 83.233,87.2037 81.733,84.8703 84,80.5C 85.6667,78.4553 87.5001,76.622 89.5,75C 88.5881,73.3745 89.2547,72.5412 91.5,72.5C 90.2995,76.4399 91.9662,78.1066 96.5,77.5C 96.5,75.5 96.5,73.5 96.5,71.5C 98.8333,71.5 101.167,71.5 103.5,71.5 Z"/></g>
<g><path style="opacity:1" fill="#e98106" d="M 51.5,78.5 C 50.1667,80.5 48.5,82.1667 46.5,83.5C 44.1432,83.3367 41.8098,83.5034 39.5,84C 40.7736,84.9772 40.7736,85.8106 39.5,86.5C 37.8325,84.5214 37.1658,82.188 37.5,79.5C 37.5,78.8333 37.8333,78.5 38.5,78.5C 39.7564,78.0962 40.9231,77.4295 42,76.5C 42.9503,77.0223 43.7836,77.689 44.5,78.5C 46.7857,77.5804 49.1191,77.5804 51.5,78.5 Z"/></g>
<g><path style="opacity:1" fill="#c56419" d="M 19.5,76.5 C 20.5,77.1667 21.5,77.8333 22.5,78.5C 23.209,79.404 24.209,79.7373 25.5,79.5C 25.6785,82.2165 26.1785,84.8832 27,87.5C 30.8895,85.2191 35.0561,84.8857 39.5,86.5C 40.7736,85.8106 40.7736,84.9772 39.5,84C 41.8098,83.5034 44.1432,83.3367 46.5,83.5C 46.9175,84.2216 47.5842,84.7216 48.5,85C 46.5681,86.4585 44.5681,87.6252 42.5,88.5C 37.7668,88.2232 33.1001,88.5565 28.5,89.5C 24.7871,86.4022 21.7871,82.7356 19.5,78.5C 19.5,77.8333 19.5,77.1667 19.5,76.5 Z"/></g>
<g><path style="opacity:1" fill="#0c88b6" d="M 82.5,68.5 C 84.0495,69.4408 85.7162,70.1075 87.5,70.5C 87.1077,72.1789 86.6077,73.8455 86,75.5C 80.9192,78.3127 78.4192,82.3127 78.5,87.5C 76.5,88.8333 74.5,88.8333 72.5,87.5C 72.1692,85.6776 71.5025,84.0109 70.5,82.5C 70.8333,82.5 71.1667,82.5 71.5,82.5C 78.4651,80.6273 82.1318,75.9606 82.5,68.5 Z"/></g>
<g><path style="opacity:1" fill="#0062b1" d="M 105.5,64.5 C 106.377,71.7714 104.044,78.1048 98.5,83.5C 97.914,83.2907 97.414,82.9574 97,82.5C 94.5126,85.1424 92.6793,88.1424 91.5,91.5C 89.2719,91.2231 87.6053,90.2231 86.5,88.5C 87.4916,88.6716 88.1583,88.3382 88.5,87.5C 90.2655,84.8774 90.9321,81.8774 90.5,78.5C 92.8333,78.5 95.1667,78.5 97.5,78.5C 97.5,76.5 97.5,74.5 97.5,72.5C 99.7354,72.7947 101.735,72.4614 103.5,71.5C 104.167,69.1667 104.833,66.8333 105.5,64.5 Z"/></g>
<g><path style="opacity:1" fill="#0053a7" d="M 104.5,54.5 C 105.65,56.6035 106.983,58.6035 108.5,60.5C 109.466,62.396 109.799,64.396 109.5,66.5C 109.369,67.2389 109.536,67.9056 110,68.5C 110.893,67.2888 111.726,67.2888 112.5,68.5C 111.965,70.2705 111.131,70.6039 110,69.5C 109.51,70.7932 109.343,72.1266 109.5,73.5C 115.728,73.8238 115.395,74.4905 108.5,75.5C 107.987,79.2293 107.154,82.896 106,86.5C 102.45,87.9759 100.617,90.6426 100.5,94.5C 98.5,94.5 96.5,94.5 94.5,94.5C 94.5,93.5 94.5,92.5 94.5,91.5C 93.5,91.5 92.5,91.5 91.5,91.5C 92.6793,88.1424 94.5126,85.1424 97,82.5C 97.414,82.9574 97.914,83.2907 98.5,83.5C 104.044,78.1048 106.377,71.7714 105.5,64.5C 105.923,62.2188 105.256,60.5521 103.5,59.5C 103.474,57.6264 103.807,55.9597 104.5,54.5 Z"/></g>
<g><path style="opacity:1" fill="#7b5141" d="M 7.5,62.5 C 9.05897,65.8683 9.8923,69.5349 10,73.5C 12.7633,77.1262 14.7633,81.1262 16,85.5C 19.2665,87.2627 22.0998,89.596 24.5,92.5C 21.6786,92.4613 19.0119,91.7946 16.5,90.5C 14.3451,85.843 12.0118,81.5097 9.5,77.5C 7.85543,72.7664 7.18876,67.7664 7.5,62.5 Z"/></g>
<g><path style="opacity:1" fill="#879e5f" d="M 61.5,53.5 C 62.8333,53.5 64.1667,53.5 65.5,53.5C 65.5,53.8333 65.5,54.1667 65.5,54.5C 65.5,62.5 65.5,70.5 65.5,78.5C 62.6356,80.0233 60.969,82.3567 60.5,85.5C 60.0679,86.7095 59.4013,87.7095 58.5,88.5C 57.7347,85.9039 57.4013,83.2372 57.5,80.5C 57.8451,77.6258 59.3451,75.6258 62,74.5C 64.0187,67.2779 63.852,60.2779 61.5,53.5 Z"/></g>
<g><path style="opacity:1" fill="#4a7f76" d="M 65.5,78.5 C 65.9377,79.5063 66.6043,79.5063 67.5,78.5C 69.2624,79.2623 70.2624,80.5956 70.5,82.5C 71.5025,84.0109 72.1692,85.6776 72.5,87.5C 70.3926,88.4682 68.0593,88.8016 65.5,88.5C 64.3303,86.7215 62.6636,85.7215 60.5,85.5C 60.969,82.3567 62.6356,80.0233 65.5,78.5 Z"/></g>
<g><path style="opacity:1" fill="#3e504e" d="M 60.5,85.5 C 62.6636,85.7215 64.3303,86.7215 65.5,88.5C 64.8505,90.4352 64.5172,92.4352 64.5,94.5C 63.0337,93.653 62.2004,92.3197 62,90.5C 59.6211,94.3802 56.4544,97.3802 52.5,99.5C 50.901,99.7678 49.5676,99.4345 48.5,98.5C 50.0481,98.1788 50.7148,97.1788 50.5,95.5C 51.4916,95.6716 52.1583,95.3382 52.5,94.5C 55.4778,93.5223 57.4778,91.5223 58.5,88.5C 59.4013,87.7095 60.0679,86.7095 60.5,85.5 Z"/></g>
<g><path style="opacity:1" fill="#a17c38" d="M 55.5,79.5 C 55.8333,79.5 56.1667,79.5 56.5,79.5C 56.5,80.1667 56.8333,80.5 57.5,80.5C 57.4013,83.2372 57.7347,85.9039 58.5,88.5C 57.4778,91.5223 55.4778,93.5223 52.5,94.5C 51.9963,90.4934 51.8297,86.4934 52,82.5C 53.0391,81.2899 54.2058,80.2899 55.5,79.5 Z"/></g>
<g><path style="opacity:0.716" fill="#01050b" d="M 120.5,52.5 C 125.18,80.1388 115.513,101.139 91.5,115.5C 90.8333,115.5 90.1667,115.5 89.5,115.5C 97.5583,110.28 104.558,103.78 110.5,96C 109.906,95.5357 109.239,95.369 108.5,95.5C 109.9,94.8999 110.9,93.8999 111.5,92.5C 112.167,92.5 112.5,92.1667 112.5,91.5C 115.916,85.9889 118.249,79.9889 119.5,73.5C 120.491,66.6866 120.825,59.6866 120.5,52.5 Z"/></g>
<g><path style="opacity:1" fill="#a25623" d="M 16.5,75.5 C 17.2719,76.6935 18.2719,77.6935 19.5,78.5C 21.7871,82.7356 24.7871,86.4022 28.5,89.5C 33.1001,88.5565 37.7668,88.2232 42.5,88.5C 44.622,90.0502 46.2886,92.0502 47.5,94.5C 45.1216,92.9588 42.6216,91.6255 40,90.5C 37.1776,91.2755 34.3443,91.9421 31.5,92.5C 29.4357,91.1324 27.1024,90.1324 24.5,89.5C 22.4864,87.155 20.153,85.155 17.5,83.5C 17.8333,82.8333 18.1667,82.1667 18.5,81.5C 16.9137,79.8273 16.2471,77.8273 16.5,75.5 Z"/></g>
<g><path style="opacity:1" fill="#af6a27" d="M 52.5,77.5 C 52.8333,77.5 53.1667,77.5 53.5,77.5C 53.9377,78.5063 54.6043,78.5063 55.5,77.5C 55.5,78.1667 55.5,78.8333 55.5,79.5C 54.2058,80.2899 53.0391,81.2899 52,82.5C 51.8297,86.4934 51.9963,90.4934 52.5,94.5C 52.1583,95.3382 51.4916,95.6716 50.5,95.5C 49.391,95.4431 48.391,95.1098 47.5,94.5C 46.2886,92.0502 44.622,90.0502 42.5,88.5C 44.5681,87.6252 46.5681,86.4585 48.5,85C 47.5842,84.7216 46.9175,84.2216 46.5,83.5C 48.5,82.1667 50.1667,80.5 51.5,78.5C 52.1667,78.5 52.5,78.1667 52.5,77.5 Z"/></g>
<g><path style="opacity:1" fill="#154e7d" d="M 72.5,87.5 C 74.5,88.8333 76.5,88.8333 78.5,87.5C 78.5,87.8333 78.5,88.1667 78.5,88.5C 80.3779,89.2076 82.0445,90.3743 83.5,92C 82.1011,92.5946 80.7678,92.4279 79.5,91.5C 75.9294,95.6889 71.9294,96.6889 67.5,94.5C 67.4326,95.9587 67.7659,97.2921 68.5,98.5C 66.1667,98.1667 64.8333,96.8333 64.5,94.5C 64.5172,92.4352 64.8505,90.4352 65.5,88.5C 68.0593,88.8016 70.3926,88.4682 72.5,87.5 Z"/></g>
<g><path style="opacity:1" fill="#6d4228" d="M 47.5,94.5 C 48.391,95.1098 49.391,95.4431 50.5,95.5C 50.7148,97.1788 50.0481,98.1788 48.5,98.5C 45.0824,97.3706 42.249,95.3706 40,92.5C 38.2745,93.464 36.4412,94.1307 34.5,94.5C 31.6122,95.0102 29.2789,94.3435 27.5,92.5C 28.8333,92.5 30.1667,92.5 31.5,92.5C 34.3443,91.9421 37.1776,91.2755 40,90.5C 42.6216,91.6255 45.1216,92.9588 47.5,94.5 Z"/></g>
<g><path style="opacity:1" fill="#5e606a" d="M 64.5,94.5 C 64.8333,96.8333 66.1667,98.1667 68.5,98.5C 70.0764,99.1429 71.4097,100.143 72.5,101.5C 70.4727,101.662 68.4727,101.495 66.5,101C 64.2387,99.1871 61.9053,97.6871 59.5,96.5C 59.6713,99.7973 59.0046,100.131 57.5,97.5C 56.2888,98.2739 56.2888,99.1072 57.5,100C 55.9751,101.009 54.3084,101.509 52.5,101.5C 52.5,100.833 52.5,100.167 52.5,99.5C 56.4544,97.3802 59.6211,94.3802 62,90.5C 62.2004,92.3197 63.0337,93.653 64.5,94.5 Z"/></g>
<g><path style="opacity:1" fill="#034486" d="M 86.5,88.5 C 87.6053,90.2231 89.2719,91.2231 91.5,91.5C 92.5,91.5 93.5,91.5 94.5,91.5C 94.5,92.5 94.5,93.5 94.5,94.5C 96.5,94.5 98.5,94.5 100.5,94.5C 104.112,93.5778 107.779,92.9111 111.5,92.5C 110.9,93.8999 109.9,94.8999 108.5,95.5C 108.167,95.5 107.833,95.5 107.5,95.5C 98.591,97.0698 89.7577,96.7365 81,94.5C 77.3446,97.41 73.178,98.7433 68.5,98.5C 67.7659,97.2921 67.4326,95.9587 67.5,94.5C 71.9294,96.6889 75.9294,95.6889 79.5,91.5C 80.7678,92.4279 82.1011,92.5946 83.5,92C 82.0445,90.3743 80.3779,89.2076 78.5,88.5C 81.0618,87.6285 83.7284,87.6285 86.5,88.5 Z"/></g>
<g><path style="opacity:1" fill="#533e3a" d="M 9.5,77.5 C 12.0118,81.5097 14.3451,85.843 16.5,90.5C 19.0119,91.7946 21.6786,92.4613 24.5,92.5C 25.5,92.5 26.5,92.5 27.5,92.5C 29.2789,94.3435 31.6122,95.0102 34.5,94.5C 30.3656,95.4849 26.0323,95.8182 21.5,95.5C 20.8333,95.5 20.1667,95.5 19.5,95.5C 18.791,94.596 17.791,94.2627 16.5,94.5C 15.8333,93.8333 15.1667,93.1667 14.5,92.5C 12.2308,87.6925 10.5642,82.6925 9.5,77.5 Z"/></g>
<g><path style="opacity:1" fill="#68534a" d="M 48.5,98.5 C 49.5676,99.4345 50.901,99.7678 52.5,99.5C 52.5,100.167 52.5,100.833 52.5,101.5C 45.5,100.167 38.5,98.8333 31.5,97.5C 27.9219,97.4512 24.5885,96.7846 21.5,95.5C 26.0323,95.8182 30.3656,95.4849 34.5,94.5C 36.4412,94.1307 38.2745,93.464 40,92.5C 42.249,95.3706 45.0824,97.3706 48.5,98.5 Z"/></g>
<g><path style="opacity:1" fill="#4c5f84" d="M 107.5,95.5 C 107.833,95.5 108.167,95.5 108.5,95.5C 109.239,95.369 109.906,95.5357 110.5,96C 104.558,103.78 97.5583,110.28 89.5,115.5C 86.5939,116.787 83.5939,117.787 80.5,118.5C 80.5,118.167 80.5,117.833 80.5,117.5C 85.0901,115.872 89.4235,113.705 93.5,111C 92.8839,108.821 91.7172,106.988 90,105.5C 89.5045,103.527 89.3379,101.527 89.5,99.5C 91.7463,99.9361 93.9129,100.603 96,101.5C 98.4882,100.588 100.155,101.588 101,104.5C 103.676,101.794 105.842,98.7945 107.5,95.5 Z"/></g>
<g><path style="opacity:1" fill="#384967" d="M 107.5,95.5 C 105.842,98.7945 103.676,101.794 101,104.5C 100.155,101.588 98.4882,100.588 96,101.5C 93.9129,100.603 91.7463,99.9361 89.5,99.5C 85.7353,98.226 82.0687,98.5593 78.5,100.5C 77.209,100.263 76.209,100.596 75.5,101.5C 74.5,101.5 73.5,101.5 72.5,101.5C 71.4097,100.143 70.0764,99.1429 68.5,98.5C 73.178,98.7433 77.3446,97.41 81,94.5C 89.7577,96.7365 98.591,97.0698 107.5,95.5 Z"/></g>
<g><path style="opacity:1" fill="#ad9d97" d="M 19.5,95.5 C 20.1667,95.5 20.8333,95.5 21.5,95.5C 24.5885,96.7846 27.9219,97.4512 31.5,97.5C 32.8484,98.6006 34.3484,99.6006 36,100.5C 36.9894,103.449 37.8228,106.115 38.5,108.5C 39.2508,107.624 39.7508,106.624 40,105.5C 40.9138,106.654 41.7471,106.487 42.5,105C 45.4816,104.502 48.4816,104.335 51.5,104.5C 49.4606,105.578 47.294,106.578 45,107.5C 44.6667,107.167 44.3333,106.833 44,106.5C 43.2276,107.849 42.0609,108.682 40.5,109C 40.8333,109.333 41.1667,109.667 41.5,110C 38.8738,110.995 36.2071,111.328 33.5,111C 28.2563,106.261 23.5897,101.095 19.5,95.5 Z"/></g>
<g><path style="opacity:1" fill="#727179" d="M 72.5,101.5 C 73.5,101.5 74.5,101.5 75.5,101.5C 75.5,101.833 75.5,102.167 75.5,102.5C 68.8523,103.139 62.1856,103.473 55.5,103.5C 53.9731,103.573 52.9731,102.906 52.5,101.5C 54.3084,101.509 55.9751,101.009 57.5,100C 56.2888,99.1072 56.2888,98.2739 57.5,97.5C 59.0046,100.131 59.6713,99.7973 59.5,96.5C 61.9053,97.6871 64.2387,99.1871 66.5,101C 68.4727,101.495 70.4727,101.662 72.5,101.5 Z"/></g>
<g><path style="opacity:1" fill="#a1908b" d="M 31.5,97.5 C 38.5,98.8333 45.5,100.167 52.5,101.5C 52.9731,102.906 53.9731,103.573 55.5,103.5C 55.5,103.833 55.5,104.167 55.5,104.5C 54.1667,104.5 52.8333,104.5 51.5,104.5C 48.4816,104.335 45.4816,104.502 42.5,105C 41.7471,106.487 40.9138,106.654 40,105.5C 39.7508,106.624 39.2508,107.624 38.5,108.5C 37.8228,106.115 36.9894,103.449 36,100.5C 34.3484,99.6006 32.8484,98.6006 31.5,97.5 Z"/></g>
<g><path style="opacity:1" fill="#9d969b" d="M 75.5,102.5 C 73.4223,105.051 70.7556,106.884 67.5,108C 63.1523,108.465 58.819,108.965 54.5,109.5C 55.3984,108.842 56.3984,108.176 57.5,107.5C 56.8075,106.482 56.1408,105.482 55.5,104.5C 55.5,104.167 55.5,103.833 55.5,103.5C 62.1856,103.473 68.8523,103.139 75.5,102.5 Z"/></g>
<g><path style="opacity:1" fill="#aba3a4" d="M 16.5,94.5 C 17.791,94.2627 18.791,94.596 19.5,95.5C 23.5897,101.095 28.2563,106.261 33.5,111C 36.2071,111.328 38.8738,110.995 41.5,110C 41.1667,109.667 40.8333,109.333 40.5,109C 42.0609,108.682 43.2276,107.849 44,106.5C 44.3333,106.833 44.6667,107.167 45,107.5C 47.294,106.578 49.4606,105.578 51.5,104.5C 52.8333,104.5 54.1667,104.5 55.5,104.5C 56.1408,105.482 56.8075,106.482 57.5,107.5C 56.3984,108.176 55.3984,108.842 54.5,109.5C 51.182,110.975 47.682,111.975 44,112.5C 42.1566,113.71 41.3233,115.043 41.5,116.5C 30.6867,112.022 22.3534,104.689 16.5,94.5 Z"/></g>
<g><path style="opacity:1" fill="#71748b" d="M 75.5,101.5 C 76.209,100.596 77.209,100.263 78.5,100.5C 81.1873,100.336 83.854,100.503 86.5,101C 85.2745,105.613 82.2745,109.28 77.5,112C 73.7203,112.918 70.0536,113.751 66.5,114.5C 61.4053,114.221 56.4053,114.555 51.5,115.5C 51.9704,114.307 52.9704,113.64 54.5,113.5C 59.5994,113.059 64.5994,112.226 69.5,111C 72.8333,108.333 76.1667,105.667 79.5,103C 78.255,102.209 76.9217,101.709 75.5,101.5 Z"/></g>
<g><path style="opacity:1" fill="#5a607b" d="M 89.5,99.5 C 89.3379,101.527 89.5045,103.527 90,105.5C 91.7172,106.988 92.8839,108.821 93.5,111C 89.4235,113.705 85.0901,115.872 80.5,117.5C 75.9757,115.869 71.3091,114.869 66.5,114.5C 70.0536,113.751 73.7203,112.918 77.5,112C 82.2745,109.28 85.2745,105.613 86.5,101C 83.854,100.503 81.1873,100.336 78.5,100.5C 82.0687,98.5593 85.7353,98.226 89.5,99.5 Z"/></g>
<g><path style="opacity:1" fill="#8f8a98" d="M 75.5,101.5 C 76.9217,101.709 78.255,102.209 79.5,103C 76.1667,105.667 72.8333,108.333 69.5,111C 64.5994,112.226 59.5994,113.059 54.5,113.5C 52.9704,113.64 51.9704,114.307 51.5,115.5C 49.0347,115.767 46.7014,116.434 44.5,117.5C 43.209,117.737 42.209,117.404 41.5,116.5C 41.3233,115.043 42.1566,113.71 44,112.5C 47.682,111.975 51.182,110.975 54.5,109.5C 58.819,108.965 63.1523,108.465 67.5,108C 70.7556,106.884 73.4223,105.051 75.5,102.5C 75.5,102.167 75.5,101.833 75.5,101.5 Z"/></g>
<g><path style="opacity:1" fill="#173c57" d="M 66.5,114.5 C 71.3091,114.869 75.9757,115.869 80.5,117.5C 80.5,117.833 80.5,118.167 80.5,118.5C 72.1776,121.357 63.5109,122.191 54.5,121C 50.8368,120.428 47.5035,119.262 44.5,117.5C 46.7014,116.434 49.0347,115.767 51.5,115.5C 56.4053,114.555 61.4053,114.221 66.5,114.5 Z"/></g>
<g><path style="opacity:0.665" fill="#02060c" d="M 14.5,92.5 C 15.1667,93.1667 15.8333,93.8333 16.5,94.5C 22.3534,104.689 30.6867,112.022 41.5,116.5C 42.209,117.404 43.209,117.737 44.5,117.5C 47.5035,119.262 50.8368,120.428 54.5,121C 63.5109,122.191 72.1776,121.357 80.5,118.5C 83.5939,117.787 86.5939,116.787 89.5,115.5C 90.1667,115.5 90.8333,115.5 91.5,115.5C 78.553,123.442 64.553,125.609 49.5,122C 33.9728,117.59 22.3062,108.423 14.5,94.5C 14.5,93.8333 14.5,93.1667 14.5,92.5 Z"/></g>
</svg>
